<?xml version="1.0" standalone="no"?>
<!DOCTYPE svg PUBLIC "-//W3C//DTD SVG 20010904//EN"
 "http://www.w3.org/TR/2001/REC-SVG-20010904/DTD/svg10.dtd">
<svg version="1.0" xmlns="http://www.w3.org/2000/svg"
 width="225.000000pt" height="225.000000pt" viewBox="0 0 225.000000 225.000000"
 preserveAspectRatio="xMidYMid meet">
<metadata>
Created by potrace 1.11, written by Peter Selinger 2001-2013
</metadata>
<g transform="translate(0.000000,225.000000) scale(0.100000,-0.100000)"
fill="#000000" stroke="none">
<path d="M1312 1904 c-29 -14 -61 -39 -73 -56 -28 -39 -49 -110 -49 -166 l0
-45 30 61 c36 70 83 115 156 149 59 27 154 46 200 41 47 -5 32 9 -28 27 -82
24 -174 20 -236 -11z"/>
<path d="M960 1465 c-141 -40 -299 -176 -375 -324 l-17 -34 29 22 c15 12 50
39 77 61 27 21 73 50 102 64 171 84 254 45 254 -119 0 -212 -196 -465 -453
-586 -64 -30 -203 -69 -244 -69 -12 0 -23 -4 -23 -9 0 -17 86 -32 212 -38 164
-7 272 12 477 83 87 30 191 59 238 66 211 30 497 -50 740 -208 l82 -53 -31 52
c-140 238 -335 396 -545 443 -62 14 -73 19 -67 33 33 74 57 167 62 239 l5 82
37 0 c98 0 341 100 426 175 l39 34 -50 -16 c-27 -8 -102 -17 -166 -20 -128 -6
-240 11 -341 51 l-56 23 15 -41 c25 -65 21 -227 -5 -296 -23 -60 -80 -155 -88
-148 -2 3 6 27 18 54 19 42 23 66 23 169 0 99 -3 127 -20 160 -59 120 -219
187 -355 150z"/>
<path d="M364 1042 c-23 -26 -71 -64 -107 -86 -37 -21 -67 -41 -67 -43 0 -3
18 -26 41 -51 23 -26 66 -90 97 -142 31 -52 57 -97 59 -99 9 -13 137 66 181
113 62 66 72 96 46 145 -19 36 -185 211 -201 211 -4 0 -26 -21 -49 -48z"/>
</g>
</svg>
